<svg id="SvgjsSvg1384" width="100%" height="100%" xmlns="http://www.w3.org/2000/svg" version="1.1" xlink="http://www.w3.org/1999/xlink" xmlns:svgjs="http://svgjs.com/svgjs" preserveAspectRatio="xMidYMid meet" viewBox="0 -5.1122186487588626e-15 212.8943634033203 147" overflow="visible"><defs id="SvgjsDefs1385"></defs><g id="SvgjsG1386" transform="scale(0.7194807991620741)" opacity="1"><g id="SvgjsG1387" class="gNZFmEr-n" transform="translate(94.68799999999999, -7.105427357601002e-15) scale(1.06524)" light-content="false" non-strokable="false" fill="#e00087"><path d="M0 0h100v100H0z"></path></g><g id="SvgjsG1388" class="PnhWeec5xe" transform="translate(115.76600958017994, 21.077104539697753) scale(0.6440473217812085)" light-content="true" non-strokable="false" fill="#ffffff"><path d="M93.859 83.828a3.66 3.66 0 0 0-1.738-.629 3.266 3.266 0 0 1-1.36-.578c-4-3.86-7.691-8-9.539-13.559l-.004-.004a4.313 4.313 0 0 1-.308-1.25c-.121-3.762-.41-7.539-.219-11.28v.003a7.645 7.645 0 0 1 2.809-5.223 6.23 6.23 0 0 1 5.078-1.558c1.71.18 2.3-1.54 3-2.79.87-1.519 1.308-2.238-.2-3.28a6.53 6.53 0 0 1-2-2.442A6.08 6.08 0 0 0 86.281 38a2.263 2.263 0 0 1-1.48-1.532 10.286 10.286 0 0 1 .25-3.168c0-.421 0-1.109-.31-1.398l-.003-.004a7.18 7.18 0 0 0-1.54 1.293 16.53 16.53 0 0 1-6.43 5.277 14.98 14.98 0 0 0-3.647 2.782c-2.301 2-5.079 2.488-7.891 2.922-.16.027-.32.027-.48 0-4.34-.77-8.692-1.5-13-2.309v-.004a81.744 81.744 0 0 0-17.06-1.621 39.704 39.704 0 0 0-5.722.71 7.53 7.53 0 0 1-8-4c-1.969-3.948-3.578-8.507-3.27-13.05a8.458 8.458 0 0 1 3.07-6.18 3.812 3.812 0 0 1 5.13.102 2.29 2.29 0 0 0 1 .68c.289.062.581.078.87.05.196 0 .387-.043.56-.129.245-.16.41-.414.452-.703a4.139 4.139 0 0 0-.761-2.598 6.37 6.37 0 0 0-1.711-2.062 5.996 5.996 0 0 0-4.778-1c-4.3.781-7.672 4.672-8.82 9a14.122 14.122 0 0 0-.441 3.941c0 1.23.07 2.489.191 3.72a22.636 22.636 0 0 0 1.938 7.382c1 2.102 2.14 4.09 3.269 6.102l.004-.004c.527.785.992 1.617 1.379 2.48 1.41 4.14-1.55 7.781-1.59 11.828v.004a11.218 11.218 0 0 1-1 5.317c-.77 1.5-4.121 2.73-5.39 3.75a8.076 8.076 0 0 0-2.63 4.062c-1.148 3.61-2.23 7.25-3.3 10.879-.371 1.25-.11 4.23 1.07 4.629.379.129 2.379.851 2.488-1.16.028-1.496.16-2.989.391-4.47.41-1.929 2-3.73 2.781-5.5.73-1.538 3.371-2.28 4.738-2.78 1.372-.5 2.7-.922 4.07-1.32v.003A11.71 11.71 0 0 1 24.62 69c.094 0 .188.032.27.079a.513.513 0 0 1 .12.203c.47 1.07-.1 2.101-.3 3.172v-.004a11.955 11.955 0 0 0-.2 3.12 11.892 11.892 0 0 0 2 5.802 11.601 11.601 0 0 0 1.848 2.16 11.344 11.344 0 0 1 1.922 2.379c1.141 1.8 2.75 2.16 4.559 2.101.281 0 .55-.05.828 0h.004a1.912 1.912 0 0 0 2.078-1.511c.16-.66-1.121-2-2-2.079a4.6 4.6 0 0 1-3.262-1.78A11.097 11.097 0 0 1 31.378 81a5.091 5.091 0 0 1-1-1.84 2.19 2.19 0 0 1 .152-1c.383-.953.91-1.844 1.559-2.64.68-1 1.39-1.9 2-2.88a26.296 26.296 0 0 0 1.91-3.289c.692-1.46 1.262-1.719 2.79-1.828 2-.148 4-.39 6.058-.61 1-.109 2-.21 3.078-.288l.004-.004c.96-.04 1.922.047 2.86.258 1 .199 2 .43 3 .672.386.023.738.23.948.55.215.32.266.723.141 1.09-.578 2.879-1.238 5.75-1.66 8.648-.352 2.36-.41 4.782-.559 7.172.02.329.14.641.352.899.738 1 4.148 1.101 5 .148a1.45 1.45 0 0 0-.621-2.437c-1.469-.59-1.34-1.559-.86-2.621a458.079 458.079 0 0 1 4.84-10.07 3.561 3.561 0 0 1 3-2c1.211-.141 2.41-.371 3.61-.57.16-.024.328-.024.488 0 .41.077.66.46 1 .718.34.262.691.54 1 .82a18.053 18.053 0 0 1 2 1.743c.473.68.996 1.324 1.562 1.93 1 .788 1.891 1.6 2.829 2.41l4.171 3.578c.82.699 1.66 1.39 2.489 2.07a42.591 42.591 0 0 0 5.48 4.312c1.13.641 2.75.5 4.14.422v-.004a3.455 3.455 0 0 1 1.329 0c.469-.148.578-.289.43-.828a3.689 3.689 0 0 0-1.04-1.703z"></path></g><g id="SvgjsG1389" class="text" transform="translate(147.25, 168.1140001525879) scale(1)" light-content="false" fill="#e00087"><path d="M-147.25 -11.72C-147.09 -10.14 -146.76 -8.69 -146.25 -7.38C-145.74 -6.07 -145.13 -4.97 -144.42 -4.06C-143.71 -3.15 -142.86 -2.35 -141.87 -1.66C-140.88 -0.96 -139.87 -0.41 -138.84 0.01C-137.8 0.43 -136.66 0.77 -135.41 1.03C-134.16 1.28 -132.96 1.46 -131.82 1.55C-130.68 1.65 -129.45 1.7 -128.14 1.7C-126.19 1.7 -124.31 1.52 -122.49 1.16C-120.67 0.8 -118.9 0.19 -117.17 -0.66C-115.44 -1.51 -113.95 -2.57 -112.68 -3.84C-111.41 -5.11 -110.39 -6.73 -109.61 -8.7C-108.84 -10.67 -108.46 -12.89 -108.46 -15.35C-108.46 -19.51 -109.77 -22.92 -112.38 -25.56C-115 -28.21 -118.48 -29.53 -122.81 -29.53C-124.3 -29.53 -125.8 -29.34 -127.32 -28.95C-128.85 -28.55 -130.1 -28.01 -131.07 -27.3C-131.02 -27.89 -130.95 -28.78 -130.87 -29.97C-130.79 -31.16 -130.72 -32.05 -130.66 -32.64C-122.54 -32.71 -116.37 -32.75 -112.15 -32.75C-111.54 -32.75 -111.19 -32.96 -111.08 -33.38C-110.97 -33.8 -110.92 -35.08 -110.92 -37.21L-110.92 -37.79L-110.92 -43.48C-111 -43.79 -111.22 -44.03 -111.58 -44.21C-111.94 -44.38 -112.32 -44.47 -112.73 -44.47L-144.96 -44.47C-145.18 -44.24 -145.34 -43.96 -145.44 -43.62C-145.55 -43.29 -145.62 -43 -145.63 -42.76C-145.65 -42.51 -145.66 -42.15 -145.66 -41.66L-145.66 -19.8C-145.66 -18.26 -145.37 -17.07 -144.79 -16.23L-131.78 -16.23C-131.29 -16.23 -130.95 -16.41 -130.75 -16.76C-130.56 -17.11 -130.45 -17.5 -130.43 -17.93C-130.41 -18.36 -130.24 -18.75 -129.92 -19.1C-129.59 -19.45 -129.08 -19.63 -128.38 -19.63C-127.77 -19.63 -127.27 -19.48 -126.87 -19.17C-126.47 -18.87 -126.18 -18.44 -126.01 -17.87C-125.83 -17.3 -125.71 -16.76 -125.65 -16.25C-125.6 -15.73 -125.57 -15.12 -125.57 -14.41C-125.57 -11.13 -126.54 -9.49 -128.5 -9.49C-129 -9.49 -129.38 -9.65 -129.64 -9.96C-129.89 -10.27 -130.05 -10.62 -130.11 -10.99C-130.17 -11.36 -130.28 -11.71 -130.44 -12.04C-130.61 -12.37 -130.86 -12.56 -131.19 -12.6C-132.13 -12.6 -133.44 -12.63 -135.12 -12.69C-136.8 -12.74 -138.07 -12.77 -138.93 -12.77L-143.73 -12.77C-144.88 -12.77 -145.76 -12.71 -146.35 -12.57C-146.95 -12.43 -147.25 -12.15 -147.25 -11.72Z M-65.21 -31.52C-65.21 -33.42 -65.58 -35.14 -66.3 -36.68C-67.02 -38.22 -67.99 -39.52 -69.21 -40.56C-70.43 -41.61 -71.88 -42.49 -73.56 -43.2C-75.24 -43.91 -77.01 -44.43 -78.87 -44.75C-80.72 -45.07 -82.68 -45.23 -84.73 -45.23C-87.56 -45.23 -90.08 -44.97 -92.29 -44.43C-94.49 -43.89 -96.47 -43.04 -98.23 -41.87C-99.99 -40.69 -101.4 -39.1 -102.45 -37.08C-103.51 -35.05 -104.18 -32.64 -104.47 -29.82C-104.47 -29.24 -103.93 -28.95 -102.83 -28.95L-89.24 -28.95C-88.91 -29.02 -88.66 -29.25 -88.49 -29.62C-88.33 -29.99 -88.2 -30.4 -88.11 -30.85C-88.02 -31.3 -87.91 -31.74 -87.76 -32.18C-87.61 -32.62 -87.34 -32.99 -86.94 -33.3C-86.54 -33.6 -86 -33.75 -85.31 -33.75C-84.51 -33.75 -83.87 -33.52 -83.39 -33.05C-82.92 -32.58 -82.68 -31.93 -82.68 -31.11C-82.68 -28.54 -84.79 -25.61 -89 -22.32L-90.82 -20.92C-93.14 -19.28 -96.99 -16.64 -102.36 -13.01C-103.69 -12.13 -104.36 -11.46 -104.36 -11.02L-104.36 -2.46C-104.36 -1.82 -104.26 -1.23 -104.08 -0.7C-103.89 -0.18 -103.65 0.18 -103.36 0.35L-103.36 0.94C-94.1 0.62 -85.57 0.47 -77.75 0.47C-72.91 0.59 -69.75 0.66 -68.26 0.7L-66.15 0.7C-65.8 0.64 -65.54 0.55 -65.36 0.41C-65.19 0.27 -65.08 0.13 -65.04 -0.03C-65 -0.19 -64.98 -0.41 -64.98 -0.7L-64.98 -1.23C-64.98 -1.89 -64.95 -2.86 -64.89 -4.12C-64.83 -5.38 -64.8 -6.27 -64.8 -6.8C-64.8 -8.5 -65.04 -9.8 -65.52 -10.71C-66 -11.62 -66.91 -12.07 -68.26 -12.07C-69.69 -12.07 -71.77 -12.03 -74.52 -11.95C-77.26 -11.88 -79.3 -11.84 -80.62 -11.84C-79.69 -12.77 -78.56 -13.77 -77.24 -14.82C-75.92 -15.88 -74.75 -16.78 -73.71 -17.53C-72.68 -18.29 -71.61 -19.18 -70.5 -20.21C-69.4 -21.25 -68.48 -22.27 -67.75 -23.26C-67.02 -24.26 -66.41 -25.47 -65.93 -26.89C-65.45 -28.32 -65.21 -29.86 -65.21 -31.52Z M-43.12 0.12L-41.84 0.82L-28.36 0.82C-27.58 0.82 -27.19 0.37 -27.19 -0.53L-27.19 -4.22C-27.19 -5.08 -27.21 -6.37 -27.25 -8.09C-27.29 -9.8 -27.3 -11.09 -27.3 -11.95C-27.3 -13.11 -27.29 -14.82 -27.28 -17.11C-27.26 -19.39 -27.25 -21.11 -27.25 -22.27C-27.03 -21.7 -26.02 -18.99 -24.2 -14.15C-22.38 -9.31 -21.02 -5.61 -20.1 -3.05C-19.24 -0.68 -18.67 0.55 -18.4 0.64L-9.79 0.64C-8.77 0.64 -7.28 0.62 -5.3 0.59C-3.33 0.55 -1.84 0.53 -0.82 0.53L-0.06 0.53C1.05 0.53 1.68 0.27 1.82 -0.23L1.82 -20.57C1.82 -30.68 1.76 -38.46 1.64 -43.89C1.64 -44 1.48 -44.06 1.17 -44.06L-1.05 -44.06C-1.45 -44.06 -2.49 -44.08 -4.19 -44.12C-5.89 -44.16 -7.23 -44.18 -8.2 -44.18C-11.33 -44.18 -12.89 -43.91 -12.89 -43.36C-12.87 -41.89 -12.89 -39.86 -12.93 -37.25C-12.98 -34.64 -13.01 -32.85 -13.01 -31.87L-13.01 -20.51L-17.11 -31.23C-17.46 -32.11 -18.06 -33.72 -18.91 -36.05C-19.76 -38.38 -20.48 -40.29 -21.08 -41.78C-21.67 -43.26 -22.07 -44 -22.27 -44L-42.42 -44C-42.58 -43.93 -42.66 -43.67 -42.66 -43.24L-42.66 -40.84C-43.01 -27.21 -43.16 -17.97 -43.12 -13.12ZM1.64 -43.95L1.64 -43.83Z M7.79 -1.05C7.79 -0.9 7.83 -0.55 7.91 0L8.73 0.94C11.07 0.92 14.86 0.83 20.1 0.69C25.33 0.54 29.36 0.47 32.17 0.47C33.26 0.47 34.86 0.48 36.97 0.5C39.08 0.52 40.64 0.53 41.66 0.53C42.44 0.53 42.83 0.04 42.83 -0.94C42.83 -1.87 42.81 -3.26 42.77 -5.1C42.73 -6.93 42.71 -8.32 42.71 -9.26L42.71 -11.48C42.52 -12.03 41.78 -12.3 40.49 -12.3C38.85 -12.3 36.38 -12.23 33.09 -12.07C29.8 -11.91 27.29 -11.84 25.55 -11.84L25.55 -16.05L26.31 -16.05C29.28 -16.05 33.85 -16.21 40.02 -16.52C40.1 -16.45 40.2 -16.41 40.31 -16.41C40.57 -16.41 40.72 -16.6 40.78 -16.99C40.78 -17.93 40.75 -19.32 40.69 -21.15C40.63 -22.99 40.61 -24.37 40.61 -25.31C40.61 -25.41 40.62 -25.57 40.63 -25.78C40.65 -26 40.66 -26.15 40.66 -26.25C40.66 -26.6 40.57 -26.86 40.37 -27.01C40.18 -27.17 39.79 -27.25 39.2 -27.25L25.25 -27.25C25.25 -27.71 25.28 -28.2 25.33 -28.7C25.38 -29.19 25.44 -29.77 25.53 -30.42C25.62 -31.08 25.68 -31.56 25.72 -31.87C29.88 -31.72 34.49 -31.64 39.55 -31.64L40.37 -31.64C40.61 -31.64 40.82 -31.67 41.02 -31.71C41.21 -31.76 41.37 -31.82 41.48 -31.87C41.6 -31.93 41.7 -32.04 41.79 -32.18C41.88 -32.33 41.95 -32.44 42 -32.52C42.04 -32.6 42.08 -32.74 42.1 -32.94C42.12 -33.15 42.13 -33.29 42.13 -33.37L42.13 -33.84L42.13 -34.28L42.13 -43.89L8.03 -43.89L8.03 -31.76C8.03 -28.42 7.99 -23.49 7.91 -16.96C7.83 -10.44 7.79 -5.51 7.79 -2.17Z M74.68 -22.85L78.31 0.76C82.02 0.64 83.93 0.59 84.02 0.59C84.84 0.59 86.07 0.6 87.7 0.62C89.33 0.63 90.55 0.64 91.35 0.64C91.72 0.64 92.2 0.65 92.78 0.66C93.37 0.67 93.89 0.68 94.34 0.69C94.79 0.7 95.28 0.7 95.83 0.7C96.38 0.7 96.85 0.68 97.24 0.64L106.67 -42.48C106.63 -43.09 106.58 -43.52 106.52 -43.78C106.46 -44.05 106.35 -44.18 106.17 -44.18L102.71 -44.18C102.68 -44.18 102.2 -44.19 101.29 -44.21C100.39 -44.23 99.57 -44.24 98.85 -44.24L96.27 -44.24C96.05 -44.24 95.7 -44.25 95.2 -44.28C94.7 -44.31 94.34 -44.32 94.1 -44.3L92.7 -44.3C91.46 -44.3 90.78 -44.06 90.64 -43.59L88.89 -31.7C88.34 -28.01 87.88 -23.94 87.51 -19.48L83.85 -43.71C83.75 -44.02 83.5 -44.18 83.09 -44.18C81.6 -44.18 79.36 -44.17 76.36 -44.15C73.36 -44.13 71.07 -44.12 69.49 -44.12L67.68 -44.12C67.13 -44.12 66.39 -44.16 65.45 -44.24L61.73 -21.94C61.73 -21.98 61.61 -23.16 61.36 -25.47C61.12 -27.79 60.9 -29.76 60.7 -31.39C60.51 -33.02 60.25 -34.93 59.94 -37.12C59.63 -39.31 59.3 -41.03 58.95 -42.28C58.59 -43.53 58.24 -44.2 57.89 -44.3L57.01 -44.3C56.62 -44.3 56.33 -44.32 56.13 -44.36L54.43 -44.36C54.22 -44.36 53.75 -44.37 53.03 -44.4C52.3 -44.43 51.76 -44.43 51.39 -44.41C51 -44.41 50.36 -44.39 49.48 -44.36C48.6 -44.32 47.93 -44.3 47.46 -44.3L45.12 -44.3C44.1 -44.3 43.36 -44.32 42.89 -44.36C42.34 -44.16 42.07 -43.79 42.07 -43.24L44.12 -33.4C44.92 -29.9 47.01 -20.1 50.39 -3.98C50.43 -3.81 50.48 -3.47 50.55 -2.97C50.62 -2.48 50.69 -2.07 50.76 -1.74C50.83 -1.42 50.92 -1.05 51.05 -0.64C51.18 -0.23 51.34 0.12 51.55 0.41C51.75 0.7 51.99 0.92 52.27 1.05C55.45 0.9 58.93 0.82 62.7 0.82C63.54 0.82 64.78 0.84 66.42 0.88C68.06 0.92 69.3 0.94 70.14 0.94C70.57 0.94 71 0.23 71.43 -1.17C71.86 -2.58 72.24 -4.36 72.57 -6.52C72.9 -8.68 73.2 -10.83 73.48 -12.98C73.75 -15.13 74 -17.18 74.22 -19.13C74.45 -21.08 74.6 -22.32 74.68 -22.85Z M127.09 1.76C128.59 1.68 129.99 1.57 131.26 1.42C132.54 1.27 133.95 1.04 135.47 0.7C136.99 0.37 138.35 -0.04 139.56 -0.53C140.76 -1.02 141.94 -1.67 143.12 -2.49C144.29 -3.31 145.26 -4.25 146.04 -5.3C146.83 -6.36 147.46 -7.65 147.93 -9.17C148.41 -10.69 148.65 -12.38 148.65 -14.24C148.65 -17.3 147.83 -19.85 146.19 -21.88C144.41 -24.07 141.39 -25.84 137.11 -27.19C136.29 -27.44 133.75 -28.11 129.49 -29.18C129.32 -29.24 128.87 -29.36 128.14 -29.55C127.42 -29.73 126.82 -29.9 126.33 -30.06C125.84 -30.21 125.38 -30.47 124.94 -30.82C124.5 -31.17 124.28 -31.56 124.28 -31.99C124.28 -32.34 124.44 -32.65 124.78 -32.92C125.11 -33.18 125.5 -33.37 125.96 -33.5C126.42 -33.63 126.82 -33.72 127.16 -33.78C127.5 -33.84 127.75 -33.87 127.91 -33.87C128.48 -33.87 128.93 -33.8 129.27 -33.66C129.61 -33.53 129.84 -33.35 129.95 -33.13C130.05 -32.92 130.17 -32.7 130.3 -32.46C130.42 -32.23 130.55 -32 130.68 -31.79C130.81 -31.57 131.06 -31.4 131.44 -31.26C131.82 -31.12 132.32 -31.05 132.95 -31.05C137.93 -31.05 142.42 -31.13 146.43 -31.29L147.48 -32.34C147.4 -33.5 147.26 -34.47 147.06 -35.26C146.85 -36.05 146.49 -36.86 145.97 -37.68C145.45 -38.5 144.92 -39.21 144.36 -39.83C143.8 -40.44 142.93 -41.35 141.74 -42.54C138.48 -44.57 134.1 -45.59 128.61 -45.59C126.54 -45.59 124.54 -45.42 122.61 -45.1C120.67 -44.78 118.76 -44.22 116.87 -43.43C114.97 -42.64 113.33 -41.66 111.94 -40.47C110.56 -39.29 109.43 -37.77 108.57 -35.9C107.71 -34.04 107.29 -31.93 107.29 -29.59C107.29 -26.27 108.33 -23.65 110.41 -21.74C112.49 -19.82 115.9 -18.22 120.64 -16.93C120.8 -16.89 121.37 -16.79 122.34 -16.63C123.32 -16.46 124.27 -16.26 125.2 -16.04C126.13 -15.82 127.1 -15.54 128.13 -15.22C129.16 -14.9 129.98 -14.48 130.61 -13.97C131.23 -13.47 131.54 -12.91 131.54 -12.3C131.54 -11.39 131.18 -10.66 130.44 -10.12C129.71 -9.58 128.87 -9.32 127.91 -9.32C127.13 -9.32 126.49 -9.45 125.99 -9.71C125.49 -9.98 125.14 -10.3 124.94 -10.68C124.73 -11.06 124.56 -11.44 124.41 -11.82C124.26 -12.2 124.07 -12.52 123.84 -12.79C123.6 -13.05 123.28 -13.18 122.87 -13.18C121.25 -13.18 118.79 -13.14 115.49 -13.07C112.19 -12.99 109.73 -12.95 108.11 -12.95C107.83 -12.95 107.64 -12.97 107.52 -13.01C107.13 -12.95 106.93 -12.73 106.93 -12.36C107.11 -10.25 107.58 -8.4 108.35 -6.8C109.13 -5.2 110.09 -3.88 111.25 -2.86C112.42 -1.83 113.85 -0.98 115.56 -0.31C117.27 0.37 119.04 0.85 120.88 1.16C122.71 1.46 124.79 1.66 127.09 1.76Z"></path></g></g></svg>